<?xml version="1.0" encoding="UTF-8" standalone="no"?>
<svg
   version="1.1"
   width="1000"
   height="1000"
   id="svg898"
   sodipodi:docname="favicon.svg"
   inkscape:version="1.1.2 (b8e25be8, 2022-02-05)"
   xmlns:inkscape="http://www.inkscape.org/namespaces/inkscape"
   xmlns:sodipodi="http://sodipodi.sourceforge.net/DTD/sodipodi-0.dtd"
   xmlns:xlink="http://www.w3.org/1999/xlink"
   xmlns="http://www.w3.org/2000/svg"
   xmlns:svg="http://www.w3.org/2000/svg">
  <defs
     id="defs902">
    <linearGradient
       inkscape:collect="always"
       id="linearGradient6230">
      <stop
         style="stop-color:#ffffff;stop-opacity:0"
         offset="0"
         id="stop6226" />
      <stop
         style="stop-color:#ffffff;stop-opacity:1"
         offset="1"
         id="stop6228" />
    </linearGradient>
    <linearGradient
       inkscape:collect="always"
       id="linearGradient4253-8-8-6">
      <stop
         style="stop-color:#000000;stop-opacity:1;"
         offset="0"
         id="stop4249" />
      <stop
         style="stop-color:#000000;stop-opacity:0;"
         offset="1"
         id="stop4251" />
    </linearGradient>
    <inkscape:path-effect
       effect="powermask"
       id="path-effect3735"
       is_visible="true"
       lpeversion="1"
       uri="#mask-powermask-path-effect3735"
       invert="false"
       hide_mask="false"
       background="true"
       background_color="#ffffffff" />
    <radialGradient
       inkscape:collect="always"
       xlink:href="#linearGradient4253-8-8-6"
       id="radialGradient8619"
       gradientUnits="userSpaceOnUse"
       cx="868.80731"
       cy="898.16516"
       fx="868.80731"
       fy="898.16516"
       r="500" />
    <radialGradient
       inkscape:collect="always"
       xlink:href="#linearGradient4253-8-8-6"
       id="radialGradient9445"
       cx="118.05351"
       cy="593.6095"
       fx="118.05351"
       fy="593.6095"
       r="500"
       gradientUnits="userSpaceOnUse"
       gradientTransform="matrix(-0.01017536,1.5302459,-1.4862327,-0.00988274,1006.3789,-55.518356)" />
    <linearGradient
       inkscape:collect="always"
       xlink:href="#linearGradient6230"
       id="linearGradient10421"
       x1="643.21222"
       y1="702.67407"
       x2="101.25053"
       y2="87.995193"
       gradientUnits="userSpaceOnUse" />
  </defs>
  <sodipodi:namedview
     id="namedview900"
     pagecolor="#505050"
     bordercolor="#ffffff"
     borderopacity="1"
     inkscape:pageshadow="0"
     inkscape:pageopacity="0"
     inkscape:pagecheckerboard="1"
     showgrid="false"
     inkscape:zoom="0.545"
     inkscape:cx="500"
     inkscape:cy="499.08257"
     inkscape:window-width="1440"
     inkscape:window-height="900"
     inkscape:window-x="0"
     inkscape:window-y="0"
     inkscape:window-maximized="0"
     inkscape:current-layer="g6662" />
  <g
     id="g6662">
    <path
       width="1000"
       height="1000"
       rx="400.79999"
       ry="400"
       fill="#757575"
       id="rect880"
       x="0"
       y="0"
       inkscape:label="rect880"
       style="opacity:1;fill:url(#radialGradient9445);fill-opacity:1;stroke:url(#radialGradient8619);stroke-width:0;stroke-miterlimit:4;stroke-dasharray:none"
       mask="none"
       clip-path="none"
       sodipodi:type="rect"
       d="M 400.79999,0 H 599.20001 C 821.24321,0 1000,178.4 1000,400 v 200 c 0,221.6 -178.75679,400 -400.79999,400 H 400.79999 C 178.75679,1000 0,821.6 0,600 V 400 C 0,178.4 178.75679,0 400.79999,0 Z" />
    <path
       id="path3723"
       style="mix-blend-mode:normal;fill:url(#linearGradient10421);fill-opacity:1;stroke-width:0;stroke-miterlimit:4;stroke-dasharray:none"
       d="m 288.63947,87.988445 c 26.47617,-13.01467 38.86767,14.792955 38.86767,14.792955 l 2.33217,7.39611 c 47.34028,61.31326 69.94419,121.85699 70.90921,201.39366 0.80448,66.35069 -24.88615,122.58588 -10.66726,189.47349 6.40143,17.98196 13.94889,35.86887 24.59009,51.47802 71.07479,104.25808 213.27687,32.36462 313.47418,49.85166 65.81108,11.48567 91.14636,75.92323 129.3356,125.09819 0,0 18.44298,23.82085 -4.2373,43.19118 -22.68027,19.37045 -41.12312,-4.4504 -41.12312,-4.4504 -22.22705,-28.78764 -43.01002,-78.7427 -73.75821,-98.47962 -32.70922,-20.9956 -104.93355,-1.66076 -140.61465,0.19773 -32.67227,1.70202 -74.92892,5.76617 -107.1538,1.84497 C 411.54523,660.15767 360.13662,590.65212 334.05813,518.60453 313.28182,420.38846 364.05072,319.59718 331.18072,223.94391 321.51075,195.80372 302.14824,171.67008 284.479,148.91805 l -9.92394,-20.10756 c 0,0 -12.39152,-27.80763 14.08465,-40.822289 z M 676.00681,910.02027 c -26.47617,13.01466 -38.86768,-14.79296 -38.86768,-14.79296 l -2.33216,-7.39611 c -47.34029,-61.31326 -69.9442,-121.857 -70.90922,-201.39367 -0.80448,-66.35068 24.88615,-122.58587 10.66726,-189.47348 -6.40143,-17.98197 -13.94889,-35.86887 -24.59008,-51.47802 -71.0748,-104.25808 -213.27687,-32.36461 -313.47419,-49.85165 -65.81108,-11.48569 -91.14635,-75.92323 -129.3356,-125.0982 0,0 -18.442966,-23.82084 4.2373,-43.19117 22.68027,-19.37045 41.12313,4.45038 41.12313,4.45038 22.22705,28.78765 43.01002,78.74271 73.75821,98.47962 32.70921,20.9956 104.93355,1.66076 140.61464,-0.19771 32.67227,-1.70203 74.92892,-5.76619 107.15381,-1.84498 79.04881,9.61873 130.45743,79.12427 156.53592,151.17187 20.7763,98.21607 -29.99259,199.00734 2.8774,294.66062 9.66997,28.14019 29.03248,52.27383 46.70173,75.02585 l 9.92394,20.10756 c 0,0 12.39151,27.80762 -14.08466,40.8223 z"
       inkscape:export-filename="/Users/Owen/Desktop/django/herdgen/base/static/media/favicon.png"
       inkscape:export-xdpi="96"
       inkscape:export-ydpi="96" />
  </g>
</svg>
